<?xml version="1.0" encoding="UTF-8" standalone="no"?>
<!-- Created with Inkscape (http://www.inkscape.org/) -->

<svg
   xmlns:dc="http://purl.org/dc/elements/1.1/"
   xmlns:cc="http://creativecommons.org/ns#"
   xmlns:rdf="http://www.w3.org/1999/02/22-rdf-syntax-ns#"
   xmlns:svg="http://www.w3.org/2000/svg"
   xmlns="http://www.w3.org/2000/svg"
   xmlns:sodipodi="http://sodipodi.sourceforge.net/DTD/sodipodi-0.dtd"
   xmlns:inkscape="http://www.inkscape.org/namespaces/inkscape"
   width="60.160339mm"
   height="10.636246mm"
   viewBox="0 0 60.160339 10.636246"
   version="1.1"
   id="svg856"
   inkscape:version="0.92.2 (5c3e80d, 2017-08-06)"
   sodipodi:docname="ocamlpro.svg">
  <defs
     id="defs850" />
  <sodipodi:namedview
     id="base"
     pagecolor="#ffffff"
     bordercolor="#666666"
     borderopacity="1.0"
     inkscape:pageopacity="0.0"
     inkscape:pageshadow="2"
     inkscape:zoom="5.6"
     inkscape:cx="82.540689"
     inkscape:cy="19.063932"
     inkscape:document-units="mm"
     inkscape:current-layer="layer1"
     showgrid="false"
     inkscape:window-width="1827"
     inkscape:window-height="1403"
     inkscape:window-x="2650"
     inkscape:window-y="0"
     inkscape:window-maximized="0"
     inkscape:pagecheckerboard="true" />
  <metadata
     id="metadata853">
    <rdf:RDF>
      <cc:Work
         rdf:about="">
        <dc:format>image/svg+xml</dc:format>
        <dc:type
           rdf:resource="http://purl.org/dc/dcmitype/StillImage" />
        <dc:title></dc:title>
      </cc:Work>
    </rdf:RDF>
  </metadata>
  <g
     inkscape:label="Calque 1"
     inkscape:groupmode="layer"
     id="layer1"
     transform="translate(-61.909546,-38.142982)">
    <text
       xml:space="preserve"
       style="font-style:normal;font-weight:normal;font-size:11.04087257px;line-height:1.25;font-family:sans-serif;letter-spacing:0.22909811px;word-spacing:0px;fill:#162d50;fill-opacity:1;stroke:none;stroke-width:0.27602181"
       x="61.29641"
       y="48.052486"
       id="text4569-4-2"><tspan
         sodipodi:role="line"
         id="tspan4567-1-2"
         x="61.29641"
         y="48.052486"
         style="font-style:normal;font-variant:normal;font-weight:500;font-stretch:normal;font-size:12.51299px;font-family:Fontin;-inkscape-font-specification:'Fontin Medium';letter-spacing:0.22909811px;fill:#162d50;stroke-width:0.27602181">OCaml</tspan></text>
    <path
       style="fill:#162d50;fill-opacity:1;stroke:none;stroke-width:9.59095573;stroke-linecap:round;stroke-linejoin:round;stroke-miterlimit:4;stroke-dasharray:none;stroke-opacity:0.4435262"
       d="M 154.16211 0 C 150.69989 0 147.91211 2.7877817 147.91211 6.25 L 147.91211 33.951172 C 147.91211 37.41339 150.69989 40.199219 154.16211 40.199219 L 221.12891 40.199219 C 224.59112 40.199219 227.37695 37.41339 227.37695 33.951172 L 227.37695 6.25 C 227.37695 2.7877817 224.59112 0 221.12891 0 L 154.16211 0 z M 210.33789 7.6464844 C 215.8099 7.6464844 220.37695 11.911094 220.37695 20.0625 C 220.226 27.57236 215.58345 33.421875 208.11133 33.421875 C 203.39408 33.421875 198.52734 29.118831 198.52734 20.929688 C 198.52734 13.117924 203.54505 7.6464844 210.33789 7.6464844 z M 162.18359 7.8730469 L 162.59766 7.8730469 C 166.37146 7.8730469 170.9375 9.4209732 170.9375 15.572266 C 170.9375 20.214038 166.86227 23.496094 161.88086 23.496094 C 161.20158 23.496094 160.56014 23.420483 159.88086 23.269531 C 159.95634 27.081068 160.06975 31.761763 160.2207 32.931641 L 156.10742 32.931641 L 156.10742 32.328125 C 156.10742 29.04492 156.18227 25.798403 156.14453 22.892578 C 156.14453 16.514858 156.48357 10.438444 155.125 8.7402344 L 155.39062 8.0996094 L 162.18359 7.8730469 z M 184.14844 7.9101562 C 187.92224 7.9101562 192.48828 9.4209732 192.48828 15.572266 C 192.48828 18.930947 190.37381 21.609419 187.2793 22.779297 C 188.18501 23.232153 194.90232 32.139143 195.95898 32.931641 L 190.86523 32.931641 C 189.50667 30.176767 185.84687 26.213229 183.43164 23.496094 C 182.75236 23.496094 182.11092 23.420483 181.43164 23.269531 C 181.50712 27.081068 181.61858 31.761763 181.76953 32.931641 L 177.65625 32.931641 L 177.65625 32.328125 C 177.65625 29.04492 177.73305 25.798403 177.69531 22.892578 C 177.69531 16.514858 178.03435 10.438444 176.67578 8.7402344 L 176.93945 8.0996094 C 183.88324 7.9109194 183.99749 7.9101562 184.14844 7.9101562 z M 162.03125 9.9863281 L 159.99414 10.0625 C 159.88093 11.421068 159.88086 16.742253 159.88086 20.138672 L 159.88086 21.269531 C 160.40919 21.533697 161.0502 21.609375 162.25781 21.609375 C 165.16364 21.609375 167.58008 19.610073 167.58008 16.402344 C 167.58008 11.609619 164.40874 9.9108521 162.03125 9.9863281 z M 183.58203 9.9863281 L 181.54492 10.0625 C 181.43171 11.421068 181.43164 16.742253 181.43164 20.138672 L 181.43164 21.269531 C 181.95997 21.533697 182.60098 21.609375 183.80859 21.609375 C 186.71442 21.609375 189.12891 19.610073 189.12891 16.402344 C 189.12891 11.534143 185.95952 9.9108521 183.58203 9.9863281 z M 209.01758 9.9863281 C 205.35699 9.9863281 202.60156 14.363862 202.60156 19.722656 C 202.60156 25.572045 205.81039 31.158203 209.92383 31.158203 C 213.54668 31.158203 216.26367 26.742236 216.26367 21.345703 C 216.26367 15.118935 212.90459 9.9863281 209.01758 9.9863281 z "
       transform="matrix(0.26458333,0,0,0.26458333,61.909546,38.142982)"
       id="rect1478" />
  </g>
</svg>
