<svg width="6000" height="6000" viewBox="0 0 6000 6000" fill="none" xmlns="http://www.w3.org/2000/svg">
<g clip-path="url(#clip0)">
<path d="M805.487 1183.79C1093.53 1183.79 1333.89 1408.17 1333.89 1837.08C1325.94 2232.22 1081.61 2540 688.284 2540C439.975 2540 183.719 2313.64 183.719 1882.75C183.719 1471.71 447.921 1183.79 805.487 1183.79V1183.79ZM783.635 2420.86C974.337 2420.86 1117.36 2188.54 1117.36 1904.59C1117.36 1576.95 940.567 1306.9 735.96 1306.9C543.272 1306.9 398.258 1537.24 398.258 1819.2C398.258 2126.98 567.109 2420.86 783.635 2420.86" fill="white"/>
<path d="M2559.54 2212.37C2488.03 2343.42 2319.18 2404.98 2203.96 2404.98C1904.01 2404.98 1758.99 2113.08 1758.99 1803.32C1758.99 1545.18 1878.18 1302.93 2152.32 1302.93C2333.09 1302.93 2406.59 1451.86 2406.59 1503.48L2438.37 1529.3C2507.9 1499.51 2563.52 1388.31 2563.52 1348.6C2519.81 1259.24 2346.99 1183.79 2176.15 1183.79C1794.75 1183.79 1540.48 1475.68 1540.48 1888.7C1540.48 2258.04 1743.1 2540 2116.56 2540C2364.87 2540 2567.49 2426.82 2567.49 2254.07C2567.49 2242.15 2565.5 2224.28 2559.54 2212.37" fill="white"/>
<path d="M3264.75 2301.72C3244.88 2343.42 3153.51 2397.03 3054.18 2397.03C2944.93 2397.03 2899.24 2317.61 2899.24 2250.09C2899.24 2057.48 3268.72 2053.51 3270.71 2053.51C3270.71 2053.51 3264.75 2260.02 3264.75 2301.72V2301.72ZM3475.32 2383.14C3457.44 2345.41 3447.5 2248.11 3447.5 2176.62C3447.5 1874.8 3451.48 1833.1 3451.48 1791.4C3451.48 1588.87 3310.44 1507.45 3091.92 1507.45C2938.97 1507.45 2774.09 1570.99 2774.09 1690.14C2774.09 1747.72 2819.78 1779.49 2869.44 1779.49C2893.28 1779.49 2917.11 1773.53 2936.98 1759.63C2936.98 1753.68 2934.99 1745.73 2934.99 1739.78C2934.99 1668.29 2994.59 1598.79 3087.95 1598.79C3248.86 1598.79 3274.68 1729.85 3274.68 1886.72C3274.68 1924.44 3272.69 1966.14 3270.71 2005.86C3221.05 1993.94 3171.38 1986 3121.72 1986C2907.18 1986 2720.45 2091.24 2720.45 2283.85C2720.45 2410.93 2805.87 2540 2992.6 2540C3097.88 2540 3238.92 2466.53 3276.67 2345.41C3276.67 2375.19 3294.55 2540 3427.64 2540C3485.25 2540 3574.64 2514.19 3612.38 2490.36V2454.62C3606.42 2454.62 3513.06 2458.59 3475.32 2383.14" fill="white"/>
<path d="M5245.27 2514.19C5209.52 2345.41 5229.38 1827.15 5225.41 1743.75C5221.44 1622.62 5126.09 1507.45 4987.03 1507.45C4800.3 1507.45 4683.1 1622.62 4621.52 1715.95C4603.64 1604.75 4512.26 1507.45 4385.13 1507.45C4190.45 1507.45 4063.32 1634.54 4003.73 1733.82C4009.68 1696.09 4013.66 1678.22 4013.66 1678.22C4019.62 1586.88 4007.7 1511.42 3912.35 1511.42C3830.9 1511.42 3771.31 1539.22 3735.55 1561.07V1596.81C3735.55 1596.81 3840.83 1604.75 3836.86 1837.07L3828.92 2506.25V2514.19H4027.56C4019.62 2476.46 4011.67 2424.83 4011.67 2365.26C4007.7 2154.78 4007.7 1880.76 4007.7 1799.35C4051.4 1747.72 4142.78 1664.32 4287.79 1664.32C4414.93 1666.31 4450.68 1751.69 4448.7 1942.32L4444.72 2418.88C4442.74 2454.62 4444.72 2486.39 4448.7 2514.19H4643.37C4609.6 2363.28 4621.52 1898.63 4623.51 1777.5C4669.2 1729.85 4756.6 1664.32 4889.69 1664.32C5016.83 1666.31 5052.59 1751.69 5050.6 1942.32L5046.63 2418.88C5044.64 2454.62 5046.63 2486.39 5050.6 2514.19H5245.27" fill="white"/>
<path d="M5801.47 2514.18C5797.5 2492.34 5791.54 2464.54 5789.55 2430.79C5779.62 2210.38 5773.66 1624.6 5791.54 1336.68C5805.45 1122.23 5807.43 1015 5672.35 1015C5577 1015 5509.46 1064.64 5509.46 1064.64V1100.38C5567.07 1108.33 5602.83 1167.9 5602.83 1279.09C5602.83 1279.09 5606.8 1991.95 5602.83 2484.4V2514.18H5801.47" fill="white"/>
<path d="M301.337 3028.07C135.121 3028.07 0 3163.13 0 3329.28V4685.63C0 4851.78 135.121 4985.97 301.337 4985.97L5698.55 4985.96C5864.76 4985.96 5999.88 4851.77 5999.88 4685.63V3329.28C5999.88 3163.13 5864.76 3028.07 5698.55 3028.07L301.337 3028.07ZM4296.14 3329.28C4584.18 3329.28 4824.35 3553.59 4824.35 3982.5C4816.41 4377.65 4572.08 4685.62 4178.76 4685.62C3930.45 4685.62 3674.19 4458.92 3674.19 4028.03C3674.19 3617 3938.57 3329.28 4296.14 3329.28ZM1834.63 3340.66H1856.53C2055.18 3340.66 2295.4 3422.41 2295.4 3746.08C2295.4 3990.32 2081.08 4162.88 1818.86 4162.88C1783.11 4162.88 1749.5 4159.43 1713.75 4151.49C1717.72 4352.05 1723.32 4597.8 1731.27 4659.35H1514.9V4627.83C1514.9 4455.08 1519.51 4284.25 1517.53 4131.35C1517.53 3795.77 1534.73 3476.43 1463.21 3387.07L1477.23 3352.92L1834.63 3340.66ZM2955.01 3343.29C3153.66 3343.29 3394.75 3422.41 3394.75 3746.08C3394.75 3922.8 3283.46 4063.67 3120.57 4125.22C3168.25 4149.05 3521.34 4617.66 3576.96 4659.35H3308.91C3237.39 4514.4 3044.48 4305.84 2917.34 4162.88C2881.59 4162.88 2847.98 4159.43 2812.23 4151.49C2816.2 4352.05 2821.8 4597.8 2829.75 4659.35H2613.38V4627.83C2613.38 4455.08 2617.99 4284.25 2616 4131.35C2616 3795.77 2633.21 3476.43 2561.69 3387.07L2575.71 3352.92C2941.22 3342.99 2947.07 3343.29 2955.01 3343.29ZM1826.75 3451.87L1719.88 3456.25C1713.92 3527.73 1713.75 3807.29 1713.75 3986V4045.54C1741.56 4059.44 1775.44 4063.93 1839.01 4063.93C1991.97 4063.93 2119.33 3958.64 2119.33 3789.86C2119.33 3537.68 1951.9 3447.9 1826.75 3451.87ZM2925.23 3451.87L2818.36 3456.25C2812.4 3527.73 2812.23 3807.29 2812.23 3986V4045.54C2840.04 4059.44 2873.92 4063.93 2937.49 4063.93C3090.45 4063.93 3217.81 3958.64 3217.81 3789.86C3217.81 3533.71 3050.38 3447.9 2925.23 3451.87ZM4226.93 3451.87C4034.25 3451.87 3888.81 3682.14 3888.81 3964.11C3888.81 4271.89 4057.71 4566.54 4274.24 4566.54C4464.94 4566.54 4607.99 4333.87 4607.99 4049.92C4607.99 3722.28 4431.54 3451.87 4226.93 3451.87Z" fill="white"/>
</g>
<defs>
<clipPath id="clip0">
<rect width="6000" height="6000" fill="white"/>
</clipPath>
</defs>
</svg>
